<svg fill="none" height="40" viewBox="0 0 37 40" width="37" xmlns="http://www.w3.org/2000/svg">
    <path
        d="M0.899219 37H1.63422V33.765H4.43422V33.035H1.63422V30.535H5.03422V29.8H0.899219V37ZM7.28797 37.15C8.2313 37.15 8.9163 36.8017 9.34297 36.105V37H9.99797V33.645C9.99797 33.445 9.98797 33.2483 9.96797 33.055C9.94797 32.8617 9.90464 32.6867 9.83797 32.53C9.69464 32.18 9.44964 31.9133 9.10297 31.73C8.75964 31.5433 8.3413 31.45 7.84797 31.45C7.25464 31.45 6.7713 31.5833 6.39797 31.85C6.02464 32.1167 5.77464 32.4917 5.64797 32.975L6.36297 33.185C6.4663 32.825 6.64464 32.5617 6.89797 32.395C7.15464 32.2283 7.46797 32.145 7.83797 32.145C8.3513 32.145 8.71797 32.265 8.93797 32.505C9.15797 32.7417 9.2713 33.1033 9.27797 33.59C9.03797 33.6233 8.77297 33.6583 8.48297 33.695C8.1963 33.7317 7.90797 33.7733 7.61797 33.82C7.32797 33.8667 7.0613 33.92 6.81797 33.98C6.41464 34.0867 6.08464 34.265 5.82797 34.515C5.5713 34.7617 5.44297 35.1067 5.44297 35.55C5.44297 35.8367 5.5113 36.1017 5.64797 36.345C5.78464 36.5883 5.98964 36.7833 6.26297 36.93C6.53964 37.0767 6.8813 37.15 7.28797 37.15ZM7.37297 36.515C7.08297 36.515 6.84964 36.4683 6.67297 36.375C6.49964 36.2783 6.37297 36.1567 6.29297 36.01C6.2163 35.86 6.17797 35.7067 6.17797 35.55C6.17797 35.2567 6.2763 35.0367 6.47297 34.89C6.66964 34.7433 6.88297 34.6367 7.11297 34.57C7.40964 34.49 7.75464 34.425 8.14797 34.375C8.5413 34.325 8.91464 34.2783 9.26797 34.235C9.26797 34.3583 9.26297 34.5 9.25297 34.66C9.2463 34.8167 9.22797 34.9617 9.19797 35.095C9.12797 35.5017 8.93464 35.84 8.61797 36.11C8.30464 36.38 7.88964 36.515 7.37297 36.515ZM12.5643 37H13.3243L15.2843 31.6H14.5293L12.9443 36.04L11.3493 31.6H10.6043L12.5643 37ZM18.2421 37.15C18.7754 37.15 19.2321 37.03 19.6121 36.79C19.9954 36.55 20.2888 36.2167 20.4921 35.79C20.6988 35.36 20.8021 34.8617 20.8021 34.295C20.8021 33.7383 20.7004 33.2467 20.4971 32.82C20.2971 32.39 20.0054 32.055 19.6221 31.815C19.2421 31.5717 18.7821 31.45 18.2421 31.45C17.7154 31.45 17.2604 31.57 16.8771 31.81C16.4971 32.0467 16.2038 32.3783 15.9971 32.805C15.7904 33.2317 15.6871 33.7283 15.6871 34.295C15.6871 34.8517 15.7871 35.345 15.9871 35.775C16.1904 36.205 16.4821 36.5417 16.8621 36.785C17.2454 37.0283 17.7054 37.15 18.2421 37.15ZM18.2421 36.445C17.6588 36.445 17.2171 36.25 16.9171 35.86C16.6171 35.4667 16.4671 34.945 16.4671 34.295C16.4671 33.665 16.6121 33.1517 16.9021 32.755C17.1921 32.355 17.6388 32.155 18.2421 32.155C18.8388 32.155 19.2838 32.35 19.5771 32.74C19.8738 33.1267 20.0221 33.645 20.0221 34.295C20.0221 34.9317 19.8754 35.45 19.5821 35.85C19.2888 36.2467 18.8421 36.445 18.2421 36.445ZM21.9051 37H22.6401V34.305C22.6401 33.9817 22.6767 33.66 22.7501 33.34C22.8267 33.0167 23.0001 32.7483 23.2701 32.535C23.4667 32.375 23.6801 32.2833 23.9101 32.26C24.1434 32.2333 24.3601 32.2433 24.5601 32.29V31.6C24.3234 31.54 24.0551 31.5383 23.7551 31.595C23.4551 31.6483 23.1984 31.7683 22.9851 31.955C22.8251 32.075 22.6851 32.2417 22.5651 32.455V31.6H21.9051V37ZM25.6086 30.575H26.3436V29.75H25.6086V30.575ZM25.6086 37H26.3436V31.6H25.6086V37ZM30.7826 37V36.355C30.3959 36.4183 30.0709 36.4283 29.8076 36.385C29.5476 36.3417 29.3576 36.2083 29.2376 35.985C29.1742 35.8683 29.1392 35.735 29.1326 35.585C29.1292 35.4317 29.1276 35.2417 29.1276 35.015V32.23H30.7826V31.6H29.1276V30.1H28.3976V31.6H27.2426V32.23H28.3976V35.045C28.3976 35.3083 28.4009 35.5433 28.4076 35.75C28.4176 35.9567 28.4709 36.1583 28.5676 36.355C28.6876 36.595 28.8626 36.7717 29.0926 36.885C29.3259 36.9983 29.5892 37.0617 29.8826 37.075C30.1792 37.0883 30.4792 37.0633 30.7826 37ZM33.9362 37.15C34.4595 37.15 34.9278 37.0217 35.3412 36.765C35.7578 36.5083 36.0728 36.1433 36.2862 35.67L35.6012 35.405C35.2578 36.0983 34.6928 36.445 33.9062 36.445C33.3662 36.445 32.9428 36.2767 32.6362 35.94C32.3328 35.6033 32.1662 35.125 32.1362 34.505H36.3912C36.4178 33.5517 36.2095 32.805 35.7662 32.265C35.3262 31.7217 34.7062 31.45 33.9062 31.45C33.3862 31.45 32.9345 31.5667 32.5512 31.8C32.1712 32.0333 31.8762 32.365 31.6662 32.795C31.4562 33.225 31.3512 33.735 31.3512 34.325C31.3512 34.895 31.4562 35.3917 31.6662 35.815C31.8795 36.2383 32.1795 36.5667 32.5662 36.8C32.9562 37.0333 33.4128 37.15 33.9362 37.15ZM33.9262 32.125C34.9428 32.125 35.5078 32.7133 35.6212 33.89H32.1512C32.2078 33.32 32.3878 32.8833 32.6912 32.58C32.9945 32.2767 33.4062 32.125 33.9262 32.125Z"
        fill="white" />
    <path clip-rule="evenodd" d="M27.5061 12.6066C29.4587 10.654 29.4587 7.48816 27.5061 5.53554C25.5535 3.58292 22.3877 3.58292 20.435 5.53554L19.0208 6.94975L17.6066 5.53554C15.654 3.58292 12.4882 3.58292 10.5355 5.53554C8.58292 7.48816 8.58292 10.654 10.5355 12.6066L11.9498 14.0208L19.0208 21.0919L26.0919 14.0208L27.5061 12.6066Z"
        fill="white"
        fill-rule="evenodd" />
</svg>
