<svg fill="none" height="40" viewBox="0 0 28 40" width="28" xmlns="http://www.w3.org/2000/svg">
    <path
        d="M0.7 37H1.435V33.75H5.415V37H6.145V29.8H5.415V33.045H1.435V29.8H0.7V37ZM9.8007 37.15C10.334 37.15 10.7907 37.03 11.1707 36.79C11.554 36.55 11.8474 36.2167 12.0507 35.79C12.2574 35.36 12.3607 34.8617 12.3607 34.295C12.3607 33.7383 12.259 33.2467 12.0557 32.82C11.8557 32.39 11.564 32.055 11.1807 31.815C10.8007 31.5717 10.3407 31.45 9.8007 31.45C9.27404 31.45 8.81904 31.57 8.4357 31.81C8.0557 32.0467 7.76237 32.3783 7.5557 32.805C7.34904 33.2317 7.2457 33.7283 7.2457 34.295C7.2457 34.8517 7.3457 35.345 7.5457 35.775C7.74904 36.205 8.0407 36.5417 8.4207 36.785C8.80404 37.0283 9.26404 37.15 9.8007 37.15ZM9.8007 36.445C9.21737 36.445 8.7757 36.25 8.4757 35.86C8.1757 35.4667 8.0257 34.945 8.0257 34.295C8.0257 33.665 8.1707 33.1517 8.4607 32.755C8.7507 32.355 9.19737 32.155 9.8007 32.155C10.3974 32.155 10.8424 32.35 11.1357 32.74C11.4324 33.1267 11.5807 33.645 11.5807 34.295C11.5807 34.9317 11.434 35.45 11.1407 35.85C10.8474 36.2467 10.4007 36.445 9.8007 36.445ZM13.4587 37H14.1987V33.515C14.1987 33.0917 14.3137 32.7533 14.5437 32.5C14.7737 32.2433 15.0753 32.115 15.4487 32.115C15.822 32.115 16.122 32.24 16.3487 32.49C16.5787 32.7367 16.6937 33.075 16.6937 33.505L16.6887 37H17.4137L17.4187 33.515C17.4187 33.1783 17.4803 32.9083 17.6037 32.705C17.7303 32.4983 17.8903 32.3483 18.0837 32.255C18.277 32.1617 18.4753 32.115 18.6787 32.115C19.0353 32.115 19.3287 32.235 19.5587 32.475C19.792 32.7117 19.9087 33.0383 19.9087 33.455L19.9037 37H20.6387L20.6437 33.315C20.6437 32.745 20.4803 32.2933 20.1537 31.96C19.8303 31.6233 19.3953 31.455 18.8487 31.455C18.4887 31.455 18.1653 31.5367 17.8787 31.7C17.592 31.86 17.3703 32.0817 17.2137 32.365C17.067 32.0683 16.8553 31.8433 16.5787 31.69C16.3053 31.5333 15.992 31.455 15.6387 31.455C15.3187 31.455 15.027 31.52 14.7637 31.65C14.5003 31.7767 14.2853 31.95 14.1187 32.17V31.6H13.4587V37ZM24.1862 37.15C24.7095 37.15 25.1778 37.0217 25.5912 36.765C26.0078 36.5083 26.3228 36.1433 26.5362 35.67L25.8512 35.405C25.5078 36.0983 24.9428 36.445 24.1562 36.445C23.6162 36.445 23.1928 36.2767 22.8862 35.94C22.5828 35.6033 22.4162 35.125 22.3862 34.505H26.6412C26.6678 33.5517 26.4595 32.805 26.0162 32.265C25.5762 31.7217 24.9562 31.45 24.1562 31.45C23.6362 31.45 23.1845 31.5667 22.8012 31.8C22.4212 32.0333 22.1262 32.365 21.9162 32.795C21.7062 33.225 21.6012 33.735 21.6012 34.325C21.6012 34.895 21.7062 35.3917 21.9162 35.815C22.1295 36.2383 22.4295 36.5667 22.8162 36.8C23.2062 37.0333 23.6628 37.15 24.1862 37.15ZM24.1762 32.125C25.1928 32.125 25.7578 32.7133 25.8712 33.89H22.4012C22.4578 33.32 22.6378 32.8833 22.9412 32.58C23.2445 32.2767 23.6562 32.125 24.1762 32.125Z"
        fill="#F27C4A" />
    <path clip-rule="evenodd" d="M6.29613 7.31612C5.48455 7.87616 5 8.79925 5 9.7853V18C5 19.6569 6.34315 21 8 21H20C21.6569 21 23 19.6568 23 18V9.78529C23 8.79924 22.5154 7.87616 21.7039 7.31612L16.2718 3.56769C14.9043 2.624 13.0957 2.624 11.7282 3.56769L6.29613 7.31612ZM10.5 13C9.67157 13 9 13.6716 9 14.5V15.5C9 16.3284 9.67157 17 10.5 17C11.3284 17 12 16.3284 12 15.5V14.5C12 13.6716 11.3284 13 10.5 13Z"
        fill="#F27C4A"
        fill-rule="evenodd" />
</svg>
