<svg width="24" height="24" viewBox="0 0 24 24" fill="none" xmlns="http://www.w3.org/2000/svg">
<path fill-rule="evenodd" clip-rule="evenodd" d="M11 2.25C8.37668 2.25 6.25003 4.37665 6.25003 7V7.35146C4.08754 8.21145 2.70624 10.531 3.19615 12.9806L4.35692 18.7845C4.73086 20.6542 6.37252 22 8.27925 22H15.7208C17.6275 22 19.2692 20.6542 19.6431 18.7845L20.8039 12.9806C21.2938 10.531 19.9125 8.21145 17.75 7.35146V7C17.75 4.37665 15.6234 2.25 13 2.25H11ZM16.25 7.01187V7C16.25 5.20507 14.795 3.75 13 3.75H11C9.2051 3.75 7.75003 5.20507 7.75003 7V7.01187C7.8652 7.004 7.98158 7 8.09905 7H15.901C16.0185 7 16.1349 7.004 16.25 7.01187ZM16 12C16.5523 12 17 11.5523 17 11C17 10.4477 16.5523 10 16 10C15.4477 10 15 10.4477 15 11C15 11.5523 15.4477 12 16 12ZM9.00003 11C9.00003 11.5523 8.55231 12 8.00003 12C7.44775 12 7.00003 11.5523 7.00003 11C7.00003 10.4477 7.44775 10 8.00003 10C8.55231 10 9.00003 10.4477 9.00003 11Z" fill="white"/>
</svg>
