<svg fill="none" height="40" viewBox="0 0 37 40" width="37" xmlns="http://www.w3.org/2000/svg">
    <path
        d="M1.19707 37H1.90207V31.44L4.46207 37H4.93707L7.50207 31.44V36.995H8.20207V29.8H7.51707L4.70207 35.855L1.87207 29.8H1.19707V37ZM10.3753 39.4H11.1103L14.0103 31.6H13.2603L11.6253 36.04L9.85027 31.6H9.07027L11.2653 36.985L10.3753 39.4ZM19.7957 37.15C20.6323 37.15 21.3157 36.9367 21.8457 36.51C22.3757 36.08 22.739 35.505 22.9357 34.785L22.1857 34.59C22.0323 35.1567 21.7573 35.6083 21.3607 35.945C20.964 36.2783 20.4423 36.445 19.7957 36.445C19.2323 36.445 18.7607 36.3167 18.3807 36.06C18.004 35.8 17.7207 35.4417 17.5307 34.985C17.344 34.5283 17.2523 34 17.2557 33.4C17.2623 32.8 17.359 32.2717 17.5457 31.815C17.7323 31.355 18.0123 30.9967 18.3857 30.74C18.7623 30.4833 19.2323 30.355 19.7957 30.355C20.4423 30.355 20.964 30.5233 21.3607 30.86C21.7573 31.1933 22.0323 31.6433 22.1857 32.21L22.9357 32.015C22.739 31.295 22.3757 30.7217 21.8457 30.295C21.3157 29.865 20.6323 29.65 19.7957 29.65C19.079 29.65 18.474 29.8083 17.9807 30.125C17.4873 30.4417 17.114 30.8817 16.8607 31.445C16.6073 32.0083 16.4807 32.66 16.4807 33.4C16.4807 34.1367 16.6073 34.7883 16.8607 35.355C17.114 35.9183 17.4873 36.3583 17.9807 36.675C18.474 36.9917 19.079 37.15 19.7957 37.15ZM25.5839 37.15C26.5272 37.15 27.2122 36.8017 27.6389 36.105V37H28.2939V33.645C28.2939 33.445 28.2839 33.2483 28.2639 33.055C28.2439 32.8617 28.2005 32.6867 28.1339 32.53C27.9905 32.18 27.7455 31.9133 27.3989 31.73C27.0555 31.5433 26.6372 31.45 26.1439 31.45C25.5505 31.45 25.0672 31.5833 24.6939 31.85C24.3205 32.1167 24.0705 32.4917 23.9439 32.975L24.6589 33.185C24.7622 32.825 24.9405 32.5617 25.1939 32.395C25.4505 32.2283 25.7639 32.145 26.1339 32.145C26.6472 32.145 27.0139 32.265 27.2339 32.505C27.4539 32.7417 27.5672 33.1033 27.5739 33.59C27.3339 33.6233 27.0689 33.6583 26.7789 33.695C26.4922 33.7317 26.2039 33.7733 25.9139 33.82C25.6239 33.8667 25.3572 33.92 25.1139 33.98C24.7105 34.0867 24.3805 34.265 24.1239 34.515C23.8672 34.7617 23.7389 35.1067 23.7389 35.55C23.7389 35.8367 23.8072 36.1017 23.9439 36.345C24.0805 36.5883 24.2855 36.7833 24.5589 36.93C24.8355 37.0767 25.1772 37.15 25.5839 37.15ZM25.6689 36.515C25.3789 36.515 25.1455 36.4683 24.9689 36.375C24.7955 36.2783 24.6689 36.1567 24.5889 36.01C24.5122 35.86 24.4739 35.7067 24.4739 35.55C24.4739 35.2567 24.5722 35.0367 24.7689 34.89C24.9655 34.7433 25.1789 34.6367 25.4089 34.57C25.7055 34.49 26.0505 34.425 26.4439 34.375C26.8372 34.325 27.2105 34.2783 27.5639 34.235C27.5639 34.3583 27.5589 34.5 27.5489 34.66C27.5422 34.8167 27.5239 34.9617 27.4939 35.095C27.4239 35.5017 27.2305 35.84 26.9139 36.11C26.6005 36.38 26.1855 36.515 25.6689 36.515ZM29.5955 37H30.3305V34.305C30.3305 33.9817 30.3672 33.66 30.4405 33.34C30.5172 33.0167 30.6905 32.7483 30.9605 32.535C31.1572 32.375 31.3705 32.2833 31.6005 32.26C31.8338 32.2333 32.0505 32.2433 32.2505 32.29V31.6C32.0138 31.54 31.7455 31.5383 31.4455 31.595C31.1455 31.6483 30.8888 31.7683 30.6755 31.955C30.5155 32.075 30.3755 32.2417 30.2555 32.455V31.6H29.5955V37ZM36.139 37V36.355C35.7524 36.4183 35.4274 36.4283 35.164 36.385C34.904 36.3417 34.714 36.2083 34.594 35.985C34.5307 35.8683 34.4957 35.735 34.489 35.585C34.4857 35.4317 34.484 35.2417 34.484 35.015V32.23H36.139V31.6H34.484V30.1H33.754V31.6H32.599V32.23H33.754V35.045C33.754 35.3083 33.7574 35.5433 33.764 35.75C33.774 35.9567 33.8274 36.1583 33.924 36.355C34.044 36.595 34.219 36.7717 34.449 36.885C34.6824 36.9983 34.9457 37.0617 35.239 37.075C35.5357 37.0883 35.8357 37.0633 36.139 37Z"
        fill="white" />
    <path clip-rule="evenodd" d="M18 2.25C15.3766 2.25 13.25 4.37665 13.25 7V7.35146C11.0875 8.21145 9.70621 10.531 10.1961 12.9806L11.3569 18.7845C11.7308 20.6542 13.3725 22 15.2792 22H22.7208C24.6275 22 26.2692 20.6542 26.6431 18.7845L27.8039 12.9806C28.2938 10.531 26.9125 8.21145 24.75 7.35146V7C24.75 4.37665 22.6234 2.25 20 2.25H18ZM23.25 7.01187V7C23.25 5.20507 21.7949 3.75 20 3.75H18C16.2051 3.75 14.75 5.20507 14.75 7V7.01187C14.8652 7.004 14.9815 7 15.099 7H22.901C23.0185 7 23.1348 7.004 23.25 7.01187ZM23 12C23.5523 12 24 11.5523 24 11C24 10.4477 23.5523 10 23 10C22.4477 10 22 10.4477 22 11C22 11.5523 22.4477 12 23 12ZM16 11C16 11.5523 15.5523 12 15 12C14.4477 12 14 11.5523 14 11C14 10.4477 14.4477 10 15 10C15.5523 10 16 10.4477 16 11Z"
        fill="white"
        fill-rule="evenodd" />
</svg>
