<svg fill="none" height="40" viewBox="0 0 30 40" width="30" xmlns="http://www.w3.org/2000/svg">
    <path
        d="M0.866016 37H1.60102V34.265H3.64602C3.71268 34.265 3.79102 34.2617 3.88102 34.255C3.97102 34.2483 4.06102 34.2383 4.15102 34.225C4.71102 34.1383 5.14268 33.8917 5.44602 33.485C5.75268 33.0783 5.90602 32.595 5.90602 32.035C5.90602 31.4717 5.75435 30.9867 5.45102 30.58C5.14768 30.1733 4.71435 29.9267 4.15102 29.84C4.06102 29.8233 3.97102 29.8133 3.88102 29.81C3.79435 29.8033 3.71602 29.8 3.64602 29.8H0.866016V37ZM1.60102 33.565V30.505H3.62602C3.68602 30.505 3.75602 30.5083 3.83602 30.515C3.91935 30.5183 3.99768 30.5283 4.07102 30.545C4.44102 30.625 4.71268 30.81 4.88602 31.1C5.06268 31.3867 5.15102 31.6983 5.15102 32.035C5.15102 32.3683 5.06268 32.68 4.88602 32.97C4.71268 33.26 4.44102 33.4433 4.07102 33.52C3.99768 33.5367 3.91935 33.5483 3.83602 33.555C3.75602 33.5617 3.68602 33.565 3.62602 33.565H1.60102ZM6.90117 37H7.63617V34.305C7.63617 33.9817 7.67284 33.66 7.74617 33.34C7.82284 33.0167 7.99617 32.7483 8.26617 32.535C8.46284 32.375 8.67617 32.2833 8.90617 32.26C9.13951 32.2333 9.35617 32.2433 9.55617 32.29V31.6C9.31951 31.54 9.05117 31.5383 8.75117 31.595C8.45117 31.6483 8.19451 31.7683 7.98117 31.955C7.82117 32.075 7.68117 32.2417 7.56117 32.455V31.6H6.90117V37ZM12.662 37.15C13.1954 37.15 13.652 37.03 14.032 36.79C14.4154 36.55 14.7087 36.2167 14.912 35.79C15.1187 35.36 15.222 34.8617 15.222 34.295C15.222 33.7383 15.1204 33.2467 14.917 32.82C14.717 32.39 14.4254 32.055 14.042 31.815C13.662 31.5717 13.202 31.45 12.662 31.45C12.1354 31.45 11.6804 31.57 11.297 31.81C10.917 32.0467 10.6237 32.3783 10.417 32.805C10.2104 33.2317 10.107 33.7283 10.107 34.295C10.107 34.8517 10.207 35.345 10.407 35.775C10.6104 36.205 10.902 36.5417 11.282 36.785C11.6654 37.0283 12.1254 37.15 12.662 37.15ZM12.662 36.445C12.0787 36.445 11.637 36.25 11.337 35.86C11.037 35.4667 10.887 34.945 10.887 34.295C10.887 33.665 11.032 33.1517 11.322 32.755C11.612 32.355 12.0587 32.155 12.662 32.155C13.2587 32.155 13.7037 32.35 13.997 32.74C14.2937 33.1267 14.442 33.645 14.442 34.295C14.442 34.9317 14.2954 35.45 14.002 35.85C13.7087 36.2467 13.262 36.445 12.662 36.445ZM16.86 37H17.595V32.23H19.07V31.6H17.595V31.12C17.595 30.5533 17.8733 30.27 18.43 30.27H19.07V29.65H18.38C18.1733 29.65 17.965 29.6717 17.755 29.715C17.545 29.7583 17.3583 29.8683 17.195 30.045C17.0483 30.205 16.955 30.3867 16.915 30.59C16.8783 30.79 16.86 30.9933 16.86 31.2V31.6H15.925V32.23H16.86V37ZM20.12 30.575H20.855V29.75H20.12V30.575ZM20.12 37H20.855V31.6H20.12V37ZM22.4504 37H23.1854V29.65H22.4504V37ZM26.9694 37.15C27.4927 37.15 27.961 37.0217 28.3744 36.765C28.791 36.5083 29.106 36.1433 29.3194 35.67L28.6344 35.405C28.291 36.0983 27.726 36.445 26.9394 36.445C26.3994 36.445 25.976 36.2767 25.6694 35.94C25.366 35.6033 25.1994 35.125 25.1694 34.505H29.4244C29.451 33.5517 29.2427 32.805 28.7994 32.265C28.3594 31.7217 27.7394 31.45 26.9394 31.45C26.4194 31.45 25.9677 31.5667 25.5844 31.8C25.2044 32.0333 24.9094 32.365 24.6994 32.795C24.4894 33.225 24.3844 33.735 24.3844 34.325C24.3844 34.895 24.4894 35.3917 24.6994 35.815C24.9127 36.2383 25.2127 36.5667 25.5994 36.8C25.9894 37.0333 26.446 37.15 26.9694 37.15ZM26.9594 32.125C27.976 32.125 28.541 32.7133 28.6544 33.89H25.1844C25.241 33.32 25.421 32.8833 25.7244 32.58C26.0277 32.2767 26.4394 32.125 26.9594 32.125Z"
        fill="white" />
    <circle cx="15" cy="6" fill="white" r="4" />
    <path
        d="M22.3383 15.9072C23.1752 18.9757 20.8653 22 17.6847 22L12.3153 22C9.13474 22 6.8248 18.9757 7.66166 15.9072C8.45183 13.01 11.0834 11 14.0865 11L15.9135 11C18.9166 11 21.5482 13.01 22.3383 15.9072Z"
        fill="white" />
</svg>
